<svg width="18" height="18" viewBox="0 0 18 18" fill="none" xmlns="http://www.w3.org/2000/svg">
<path d="M8.99993 11.8853C9.19768 11.8796 9.37849 11.8062 9.52539 11.6479L13.8195 7.25216C13.9438 7.12786 14.0116 6.96966 14.0116 6.7832C14.0116 6.4103 13.7178 6.11084 13.3449 6.11084C13.1641 6.11084 12.9889 6.18429 12.859 6.31424L9.00558 10.275L5.1409 6.31424C5.01095 6.18994 4.84145 6.11084 4.65499 6.11084C4.28209 6.11084 3.98828 6.4103 3.98828 6.7832C3.98828 6.96966 4.05608 7.12786 4.18039 7.25216L8.48012 11.6479C8.63267 11.8062 8.80218 11.8853 8.99993 11.8853Z" fill="black"/>
</svg>
