<svg width="24" height="24" viewBox="0 0 24 24" fill="none" xmlns="http://www.w3.org/2000/svg">
<path d="M8.54185 19.5162H15.4651C16.6253 19.5162 17.3711 18.8156 17.4314 17.6554L17.9361 6.8072H18.7648C19.149 6.8072 19.4428 6.50586 19.4428 6.12919C19.4428 5.75251 19.1415 5.46624 18.7648 5.46624H15.4199V4.33622C15.4199 3.17606 14.6816 2.49805 13.4235 2.49805H10.5608C9.30273 2.49805 8.56445 3.17606 8.56445 4.33622V5.46624H5.23465C4.85798 5.46624 4.55664 5.76004 4.55664 6.12919C4.55664 6.51339 4.85798 6.8072 5.23465 6.8072H6.06334L6.56808 17.6554C6.62835 18.8231 7.36663 19.5162 8.54185 19.5162ZM9.97321 4.40402C9.97321 4.01981 10.2444 3.77121 10.6588 3.77121H13.3256C13.74 3.77121 14.0112 4.01981 14.0112 4.40402V5.46624H9.97321V4.40402ZM8.69252 18.1677C8.27818 18.1677 7.97684 17.8588 7.95424 17.4143L7.4495 6.8072H16.5273L16.0377 17.4143C16.0226 17.8664 15.7288 18.1677 15.2994 18.1677H8.69252ZM9.77734 16.9548C10.1013 16.9548 10.3047 16.7514 10.2972 16.4501L10.0711 8.57003C10.0636 8.26869 9.85268 8.07282 9.54381 8.07282C9.2274 8.07282 9.024 8.27623 9.03153 8.57757L9.25753 16.4576C9.26507 16.7589 9.476 16.9548 9.77734 16.9548ZM11.9997 16.9548C12.3161 16.9548 12.5346 16.7589 12.5346 16.4576V8.57757C12.5346 8.27623 12.3161 8.07282 11.9997 8.07282C11.6833 8.07282 11.4724 8.27623 11.4724 8.57757V16.4576C11.4724 16.7589 11.6833 16.9548 11.9997 16.9548ZM14.2221 16.9623C14.5234 16.9623 14.7344 16.7589 14.7419 16.4576L14.9679 8.57757C14.9754 8.27623 14.772 8.08036 14.4556 8.08036C14.1468 8.08036 13.9358 8.27623 13.9283 8.57757L13.7023 16.4576C13.6948 16.7514 13.8982 16.9623 14.2221 16.9623Z" fill="black"/>
</svg>
