<svg width="158" height="38" viewBox="0 0 158 38" fill="none" xmlns="http://www.w3.org/2000/svg">
<path d="M14.6355 30.658L12.8875 27.352L10.3795 32.862L3.08348 33.508L-0.716516 31.608L6.88348 15.8L0.0814844 2.614L7.49148 1.968L11.2915 3.868L12.0895 5.388L13.6475 1.778L20.9815 1.132L24.7815 3.032L18.2835 16.902L26.1495 31.912L18.4355 32.558L14.6355 30.658ZM20.3355 1.588L13.8755 2.158L10.9115 9.15L7.26348 2.386L0.651484 2.956L7.30148 15.762L-0.0705156 31.152L6.31348 30.62L10.4175 21.652L14.8635 30.278L21.7035 29.67L14.0655 15.04L20.3355 1.588ZM51.4299 37.612C49.8592 37.308 48.4532 36.928 47.2119 36.472C45.9959 36.016 44.8812 35.5093 43.8679 34.952C42.8799 34.42 41.9045 33.9007 40.9419 33.394H40.7519C39.6625 33.394 38.5985 33.2293 37.5599 32.9C36.5212 32.596 35.3685 32.1653 34.1019 31.608C31.4165 30.4173 29.4532 28.5807 28.2119 26.098C26.9959 23.6153 26.3879 20.6513 26.3879 17.206C26.3879 15.23 26.6285 13.3173 27.1099 11.468C27.6165 9.59333 28.3639 7.90867 29.3519 6.414C30.3399 4.91933 31.5812 3.70333 33.0759 2.766C34.5705 1.80333 36.3185 1.23333 38.3199 1.056C38.5225 1.03067 38.7125 1.018 38.8899 1.018C39.0672 1.018 39.2445 1.018 39.4219 1.018C40.6125 1.018 41.6765 1.19533 42.6139 1.55C43.5765 1.87933 44.6659 2.29733 45.8819 2.804C48.6939 4.02 50.7459 5.882 52.0379 8.39C53.3552 10.8727 54.0139 13.7733 54.0139 17.092C54.0139 19.3213 53.6972 21.576 53.0639 23.856C52.4305 26.1107 51.3792 28.074 49.9099 29.746L51.6579 29.86L55.4579 31.798L51.4299 37.612ZM50.9359 30.202C49.4159 30.126 48.1492 29.9613 47.1359 29.708C46.1479 29.4547 45.3245 29.1253 44.6659 28.72C45.9072 27.656 46.9079 26.3893 47.6679 24.92C48.4279 23.4253 48.9725 21.842 49.3019 20.17C49.6565 18.498 49.8339 16.8387 49.8339 15.192C49.8339 13.368 49.6185 11.6327 49.1879 9.986C48.7825 8.314 48.1492 6.832 47.2879 5.54C46.4265 4.248 45.3372 3.23467 44.0199 2.5C42.7279 1.76533 41.1952 1.398 39.4219 1.398C39.2445 1.398 39.0672 1.398 38.8899 1.398C38.7379 1.398 38.5605 1.41066 38.3579 1.436C36.4072 1.61333 34.7099 2.17067 33.2659 3.108C31.8219 4.02 30.6185 5.21067 29.6559 6.68C28.6932 8.14933 27.9712 9.78333 27.4899 11.582C27.0085 13.3807 26.7679 15.2553 26.7679 17.206C26.7679 19.106 26.9579 20.892 27.3379 22.564C27.7432 24.236 28.3639 25.718 29.1999 27.01C30.0359 28.302 31.0999 29.3153 32.3919 30.05C33.6839 30.7593 35.2292 31.114 37.0279 31.114C37.2305 31.114 37.4205 31.114 37.5979 31.114C37.8005 31.114 38.0032 31.1013 38.2059 31.076C39.3712 32.0133 40.6885 32.8493 42.1579 33.584C43.6272 34.344 45.3879 34.9013 47.4399 35.256L50.9359 30.202ZM38.3579 25.528C38.2565 25.528 38.1679 25.5407 38.0919 25.566C38.0159 25.566 37.9272 25.566 37.8259 25.566C36.2805 25.566 35.0772 24.8693 34.2159 23.476C33.3799 22.0573 32.9619 19.79 32.9619 16.674C32.9619 14.47 33.1899 12.7093 33.6459 11.392C34.1272 10.0493 34.7732 9.06133 35.5839 8.428C36.4199 7.79467 37.3445 7.44 38.3579 7.364C38.4592 7.364 38.5605 7.364 38.6619 7.364C38.7632 7.33867 38.8645 7.326 38.9659 7.326C40.4605 7.326 41.6132 7.95933 42.4239 9.226C43.2345 10.4927 43.6399 12.6713 43.6399 15.762C43.6399 19.0553 43.1459 21.4747 42.1579 23.02C41.1952 24.5653 39.9285 25.4013 38.3579 25.528ZM38.3579 25.186C39.7765 25.0087 40.9419 24.1727 41.8539 22.678C42.7912 21.158 43.2599 18.8527 43.2599 15.762C43.2599 12.9753 42.9179 10.936 42.2339 9.644C42.1325 9.61867 42.0185 9.606 41.8919 9.606C41.7905 9.606 41.6892 9.606 41.5879 9.606C40.0425 9.606 38.9152 10.366 38.2059 11.886C37.4965 13.406 37.1419 15.6353 37.1419 18.574C37.1419 21.5633 37.5472 23.7673 38.3579 25.186ZM76.5105 1.36L80.3105 3.26V22.526C80.3105 25.794 79.4618 28.3527 77.7645 30.202C76.0925 32.0513 73.8125 33.1153 70.9245 33.394C70.7471 33.4193 70.5571 33.432 70.3545 33.432C70.1771 33.432 69.9871 33.432 69.7845 33.432C68.5685 33.432 67.4285 33.2547 66.3645 32.9C65.3258 32.5453 64.2491 32.0893 63.1345 31.532C61.9185 30.8987 60.9051 30.202 60.0945 29.442C59.2838 28.682 58.6758 27.732 58.2705 26.592C57.8651 25.4267 57.6625 23.97 57.6625 22.222V2.652L64.3125 2.044L68.1125 3.944V22.374C68.1125 22.7793 68.1251 23.1593 68.1505 23.514C68.2011 23.8433 68.2518 24.1473 68.3025 24.426C68.8851 24.122 69.3285 23.6027 69.6325 22.868C69.9365 22.1333 70.0885 21.1453 70.0885 19.904V1.93L76.5105 1.36ZM70.4685 2.272V19.904C70.4685 21.6773 70.1771 22.9693 69.5945 23.78C69.0118 24.5653 68.2011 25.0087 67.1625 25.11H66.7825C65.8451 25.11 65.1358 24.7427 64.6545 24.008C64.1731 23.2733 63.9325 22.0953 63.9325 20.474V2.462L58.0425 2.994V22.222C58.0425 25.1353 58.7265 27.352 60.0945 28.872C61.4625 30.392 63.4131 31.152 65.9465 31.152C66.1491 31.152 66.3391 31.152 66.5165 31.152C66.7191 31.152 66.9091 31.1393 67.0865 31.114C69.8731 30.886 72.0771 29.8727 73.6985 28.074C75.3198 26.25 76.1305 23.7673 76.1305 20.626V1.778L70.4685 2.272ZM98.4605 30.544L97.0545 26.022L94.0525 26.288L92.1905 32.938L85.7305 33.508L81.9305 31.608L90.2525 1.93L96.5225 1.398L100.323 3.298L108.797 31.912L102.261 32.444L98.4605 30.544ZM90.5565 2.31L82.5005 31.152L88.0485 30.696L89.9485 24.046L96.7125 23.438L98.7265 30.164L104.465 29.67L96.2185 1.816L90.5565 2.31ZM91.2785 18.498C91.7598 16.9273 92.1525 15.4327 92.4565 14.014C92.7858 12.5953 93.0645 11.1767 93.2925 9.758H93.4445C93.6472 11.1513 93.9005 12.5193 94.2045 13.862C94.5338 15.1793 94.9265 16.598 95.3825 18.118L91.2785 18.498ZM123.689 30.62L120.991 25.756V32.672L114.455 33.242L110.655 31.342V2.462L120.193 1.626C120.395 1.60066 120.585 1.588 120.763 1.588C120.965 1.588 121.155 1.588 121.333 1.588C122.802 1.588 124.221 1.816 125.589 2.272C126.957 2.728 128.185 3.39933 129.275 4.286C130.364 5.17267 131.225 6.24933 131.859 7.516C132.492 8.75733 132.809 10.176 132.809 11.772C132.809 15.8 131.339 18.7007 128.401 20.474L134.823 31.912L127.489 32.52L123.689 30.62ZM124.069 18.422C125.639 17.5607 126.792 16.4207 127.527 15.002C128.261 13.5833 128.629 11.8733 128.629 9.872C128.629 7.516 127.97 5.616 126.653 4.172C125.361 2.70266 123.537 1.968 121.181 1.968C121.029 1.968 120.877 1.968 120.725 1.968C120.573 1.968 120.408 1.98067 120.231 2.006L111.035 2.804V30.962L116.811 30.468V20.436L118.445 20.284L123.879 30.24L130.377 29.67L124.069 18.422ZM116.811 7.782L119.319 7.554H119.737C120.573 7.554 121.269 7.80733 121.827 8.314C122.409 8.79533 122.701 9.644 122.701 10.86C122.701 12.1267 122.397 13.1147 121.789 13.824C121.181 14.508 120.357 14.9007 119.319 15.002L116.811 15.23V7.782ZM120.991 14.052C121.877 13.4187 122.321 12.3547 122.321 10.86C122.321 10.6827 122.308 10.518 122.283 10.366C122.283 10.214 122.27 10.062 122.245 9.91L120.991 10.024V14.052ZM137.039 31.304V2.424L153.417 0.979999L157.217 2.88V9.112L147.337 9.986V12.266L151.403 11.886L155.203 13.786V19.942L147.337 20.664V24.236L154.063 23.628L157.863 25.528V31.722L140.839 33.204L137.039 31.304ZM143.157 24.996V18.422L151.023 17.7V12.304L143.157 13.026V7.744L153.037 6.87V1.398L137.419 2.766V30.924L153.683 29.48V24.046L143.157 24.996Z" fill="white"/>
</svg>
